<svg xmlns="http://www.w3.org/2000/svg" xmlns:xlink="http://www.w3.org/1999/xlink" width="295.292" height="180.346" viewBox="0 0 295.292 180.346">
  <defs>
    <radialGradient id="radial-gradient" cx="0.578" cy="0.498" r="0.922" gradientUnits="objectBoundingBox">
      <stop offset="0" stop-color="#fff"/>
      <stop offset="0.127" stop-color="#fde966"/>
      <stop offset="0.66" stop-color="#cf9102"/>
      <stop offset="1" stop-color="#8c3c10"/>
    </radialGradient>
    <radialGradient id="radial-gradient-2" cx="-0.634" cy="0.142" r="5.962" gradientUnits="objectBoundingBox">
      <stop offset="0" stop-color="#fff"/>
      <stop offset="0.33" stop-color="#fde966"/>
      <stop offset="0.66" stop-color="#cf9102"/>
      <stop offset="1" stop-color="#8c3c10"/>
    </radialGradient>
    <radialGradient id="radial-gradient-3" cx="-0.822" cy="0.5" r="2.292" xlink:href="#radial-gradient-2"/>
    <radialGradient id="radial-gradient-4" cx="0.714" cy="1.9" r="2.586" xlink:href="#radial-gradient-2"/>
    <radialGradient id="radial-gradient-5" cx="0.408" cy="0.967" r="1.861" gradientUnits="objectBoundingBox">
      <stop offset="0" stop-color="#fff"/>
      <stop offset="0.33" stop-color="#fff"/>
      <stop offset="0.66" stop-color="#fff" stop-opacity="0"/>
      <stop offset="1" stop-color="#fff" stop-opacity="0"/>
    </radialGradient>
    <radialGradient id="radial-gradient-6" cx="0.856" cy="0.698" r="0.747" xlink:href="#radial-gradient-5"/>
    <radialGradient id="radial-gradient-7" cx="0.709" cy="0.319" r="0.832" xlink:href="#radial-gradient-5"/>
    <linearGradient id="linear-gradient" x1="0.5" y1="2.697" x2="0.5" y2="0.346" gradientUnits="objectBoundingBox">
      <stop offset="0" stop-color="#fff"/>
      <stop offset="1" stop-color="#fff" stop-opacity="0"/>
    </linearGradient>
    <linearGradient id="linear-gradient-2" x1="2.239" y1="0.5" x2="0.173" y2="0.5" xlink:href="#linear-gradient"/>
    <linearGradient id="linear-gradient-3" x1="0.828" y1="-0.786" x2="0.513" y2="0.519" xlink:href="#linear-gradient"/>
    <radialGradient id="radial-gradient-8" cx="0.5" cy="-0.875" r="2.551" gradientUnits="objectBoundingBox">
      <stop offset="0" stop-color="#fff"/>
      <stop offset="0.5" stop-color="#7d7d7d"/>
      <stop offset="1" stop-color="#231916"/>
    </radialGradient>
    <radialGradient id="radial-gradient-9" cx="-0.091" cy="-0.287" r="3.325" xlink:href="#radial-gradient-8"/>
  </defs>
  <g id="Group_8" data-name="Group 8" transform="translate(459.201 -408.836)">
    <g id="Group_3" data-name="Group 3" transform="translate(-365.363 408.836)">
      <g id="Group_1" data-name="Group 1" transform="translate(0 22.194)">
        <path id="Path_1" data-name="Path 1" d="M98.554,311.219a53.555,53.555,0,0,1-3-16.354c10.957,14.8,42.182,20.435,44.938,4.809C143.561,317.218,113.641,324.673,98.554,311.219ZM137.1,289.947c22.4,24.742-15.564,43.875-34.174,30.673a53.7,53.7,0,0,0,45.9,26.513C156.786,327.592,156.506,301.385,137.1,289.947Zm65.4-3.762a53.9,53.9,0,0,1-4.233,29.266c-7.419-14.849-16.757-24.944-28.1-30.077,10.929,8.267,18.162,21.863,21.87,40.54a53.668,53.668,0,0,1-36.091,20.808c15.487-45.793-25.775-75.612-39.843-58.473,1.312-8.821,5.219-14.186,15.747-15.284,5.764-13,30.423-13.222,46.76-7.53l-5.636.438C182.292,269.073,195.488,277.808,202.5,286.185ZM153.635,271.2c-6.77-.089-9.486,1.71-14.339,1.8,3.675,2.642,6.771,1.546,8.54-.772A31.857,31.857,0,0,1,153.635,271.2Z" transform="translate(-95.551 -261.881)" fill-rule="evenodd" fill="url(#radial-gradient)"/>
        <path id="Path_2" data-name="Path 2" d="M95.551,308.381a53.937,53.937,0,0,0,.6,6.724c13.284,12.469,43.657,13.6,44.338-1.915C137.733,328.816,106.508,323.177,95.551,308.381Z" transform="translate(-95.551 -275.397)" fill-rule="evenodd" fill="url(#radial-gradient-2)"/>
        <path id="Path_3" data-name="Path 3" d="M140.115,301.447c22.4,24.742-15.564,43.875-34.174,30.673a53.992,53.992,0,0,0,11.314,13.533C144.652,347.739,161.126,318.779,140.115,301.447Z" transform="translate(-98.571 -273.381)" fill-rule="evenodd" fill="url(#radial-gradient-3)"/>
        <path id="Path_4" data-name="Path 4" d="M124.52,295.566c14.068-17.138,55.33,12.68,39.843,58.473a53.351,53.351,0,0,0,18.829-6.023C184.7,300.874,138.142,271.7,124.52,295.566Z" transform="translate(-103.971 -269.199)" fill-rule="evenodd" fill="url(#radial-gradient-4)"/>
        <path id="Path_5" data-name="Path 5" d="M96.4,317.076c13.284,12.469,43.657,13.6,44.338-1.915C139.163,330.145,111.161,328.735,96.4,317.076Z" transform="translate(-95.797 -277.367)" fill-rule="evenodd" fill="url(#radial-gradient-5)"/>
        <path id="Path_6" data-name="Path 6" d="M144.751,301.447c19.936,16.746,3.347,45.644-22.861,44.206C149.288,347.739,165.762,318.779,144.751,301.447Z" transform="translate(-103.207 -273.381)" fill-rule="evenodd" fill="url(#radial-gradient-6)"/>
        <path id="Path_7" data-name="Path 7" d="M133.04,289.287c17.153-8.969,51.463,16.067,52.628,58.73C187,306.421,150.908,278.809,133.04,289.287Z" transform="translate(-106.448 -269.199)" fill-rule="evenodd" fill="url(#radial-gradient-7)"/>
        <path id="Path_8" data-name="Path 8" d="M100.27,326.551q.382,1.345.837,2.67c9.639,8.33,30.53,9.157,37.769-2.114C129.276,337,111.215,334.471,100.27,326.551Z" transform="translate(-96.923 -280.678)" fill-rule="evenodd" fill="url(#linear-gradient)"/>
        <path id="Path_9" data-name="Path 9" d="M149.781,359.652a52.349,52.349,0,0,0,13.877,2.235c5.395-13.824,6.829-31.763-1.063-44.451C171.033,334.895,159.765,353.453,149.781,359.652Z" transform="translate(-111.314 -278.029)" fill-rule="evenodd" fill="url(#linear-gradient-2)"/>
        <path id="Path_10" data-name="Path 10" d="M183.711,265.585l4.419-.343c-9.718-2.027-24.105-2.467-32.439,3.04,21.6-8.521,47.965,9.084,63.378,26.616a52.728,52.728,0,0,0-.405-7.561C208.657,276.478,196.382,268.959,183.711,265.585Z" transform="translate(-113.032 -262.453)" fill-rule="evenodd" fill="url(#linear-gradient-3)"/>
      </g>
      <g id="Group_2" data-name="Group 2" transform="translate(0.125)">
        <path id="Path_11" data-name="Path 11" d="M149.307,230.593a53.727,53.727,0,0,0-53.58,49.763,29.984,29.984,0,0,0,6.228,5.853,47.4,47.4,0,0,1,89.519-23.538,71.542,71.542,0,0,1,9.614,7.281A53.746,53.746,0,0,0,149.307,230.593Z" transform="translate(-95.727 -230.593)" fill-rule="evenodd" fill="url(#radial-gradient-8)"/>
        <path id="Path_12" data-name="Path 12" d="M150.548,235.059A50.556,50.556,0,0,0,100,284.918a33.735,33.735,0,0,0,3.2,2.589,47.4,47.4,0,0,1,89.519-23.538c1.738,1.106,3.423,2.273,5.031,3.49A50.574,50.574,0,0,0,150.548,235.059Z" transform="translate(-96.968 -231.891)" fill-rule="evenodd" fill="url(#radial-gradient-9)"/>
      </g>
    </g>
    <g id="Group_6" data-name="Group 6" transform="translate(-459.201 541.178)">
      <g id="Group_4" data-name="Group 4">
        <path id="Path_13" data-name="Path 13" d="M281.851,286.883c0-4.966,0-5.857-.064-6.876-.063-1.083-.318-1.592-1.368-1.814a5.944,5.944,0,0,0-1.082-.1c-.128,0-.255-.064-.255-.191,0-.191.159-.255.509-.255,1.432,0,3.342.1,3.6.1.7,0,2.546-.1,4.011-.1,3.979,0,5.412,1.337,5.921,1.814a5.532,5.532,0,0,1,1.592,3.789c0,4.52-3.31,7.576-7.831,7.576a4.784,4.784,0,0,1-.668-.031c-.159,0-.35-.064-.35-.223,0-.255.191-.287.859-.287a5.286,5.286,0,0,0,5.507-5.188,6.753,6.753,0,0,0-1.783-4.9,5.527,5.527,0,0,0-4.361-1.592,3.924,3.924,0,0,0-1.369.191c-.191.064-.255.287-.255.605v13.083c0,3.056,0,5.57.159,6.908.1.924.287,1.624,1.242,1.751a13.992,13.992,0,0,0,1.432.127c.191,0,.255.1.255.191,0,.159-.16.255-.509.255-1.751,0-3.757-.1-3.915-.1-.1,0-2.1.1-3.056.1-.35,0-.509-.064-.509-.255,0-.1.064-.191.255-.191a4.947,4.947,0,0,0,.955-.127c.637-.128.8-.828.924-1.751.159-1.337.159-3.852.159-6.908Z" transform="translate(-279.082 -277.206)" fill="#76777a"/>
        <path id="Path_14" data-name="Path 14" d="M311.741,286.883c0-4.966,0-5.857-.064-6.876-.063-1.083-.319-1.592-1.368-1.814a5.937,5.937,0,0,0-1.082-.1c-.128,0-.255-.064-.255-.191,0-.191.159-.255.509-.255,1.432,0,3.438.1,3.6.1.35,0,2.769-.1,3.756-.1a9.807,9.807,0,0,1,5.826,1.4,5.572,5.572,0,0,1,2.2,4.329c0,2.356-.987,4.711-3.852,7.354,2.61,3.342,4.775,6.176,6.622,8.149a6.577,6.577,0,0,0,3.883,2.292,7.615,7.615,0,0,0,1.241.1c.16,0,.287.1.287.191,0,.191-.191.255-.764.255h-2.26a6.48,6.48,0,0,1-3.406-.6c-1.368-.733-2.483-2.293-4.3-4.679-1.337-1.751-2.833-3.884-3.47-4.711a.513.513,0,0,0-.414-.191l-3.915-.064c-.159,0-.223.1-.223.255v.764c0,3.056,0,5.57.159,6.908.1.924.287,1.624,1.242,1.751a13.993,13.993,0,0,0,1.432.127c.191,0,.255.1.255.191,0,.159-.159.255-.509.255-1.751,0-3.756-.1-3.915-.1-.032,0-2.038.1-2.993.1-.35,0-.509-.064-.509-.255,0-.1.064-.191.255-.191a4.962,4.962,0,0,0,.956-.127c.636-.128.8-.828.923-1.751.159-1.337.159-3.852.159-6.908Zm2.547,2.769a.415.415,0,0,0,.223.382,8.771,8.771,0,0,0,3.342.51,4.123,4.123,0,0,0,2.388-.605c1.114-.764,1.942-2.483,1.942-4.9,0-3.979-2.1-6.366-5.507-6.366a9.6,9.6,0,0,0-2.133.191.384.384,0,0,0-.255.382Z" transform="translate(-287.77 -277.206)" fill="#76777a"/>
        <path id="Path_15" data-name="Path 15" d="M349.488,292.486c0,3.056,0,5.57.16,6.908.1.924.286,1.624,1.241,1.751a13.992,13.992,0,0,0,1.432.127c.192,0,.255.1.255.191,0,.159-.159.255-.509.255-1.751,0-3.756-.1-3.915-.1s-2.164.1-3.119.1c-.35,0-.509-.064-.509-.255,0-.1.063-.191.254-.191a4.954,4.954,0,0,0,.955-.127c.637-.128.8-.828.923-1.751.159-1.337.159-3.852.159-6.908v-5.6c0-4.966,0-5.857-.063-6.876-.064-1.083-.382-1.624-1.082-1.783a4.2,4.2,0,0,0-.987-.127c-.128,0-.255-.064-.255-.191,0-.191.159-.255.509-.255,1.051,0,3.056.1,3.215.1s2.165-.1,3.12-.1c.35,0,.509.063.509.255,0,.127-.127.191-.255.191a4.725,4.725,0,0,0-.8.1c-.859.159-1.114.7-1.177,1.814-.064,1.019-.064,1.91-.064,6.876Z" transform="translate(-298.075 -277.206)" fill="#76777a"/>
        <path id="Path_16" data-name="Path 16" d="M376.989,277.023c7.163,0,12.511,4.521,12.511,11.937,0,7.13-5.03,13.019-12.7,13.019-8.722,0-12.351-6.781-12.351-12.51C364.447,284.313,368.2,277.023,376.989,277.023Zm.669,23.747c2.865,0,8.786-1.656,8.786-10.919,0-7.639-4.647-11.746-9.677-11.746-5.316,0-9.3,3.5-9.3,10.473C367.471,296,371.928,300.77,377.658,300.77Z" transform="translate(-303.894 -277.023)" fill="#76777a"/>
        <path id="Path_17" data-name="Path 17" d="M410.4,286.883c0-4.966,0-5.857-.064-6.876-.064-1.083-.318-1.592-1.368-1.814a5.946,5.946,0,0,0-1.083-.1c-.126,0-.254-.064-.254-.191,0-.191.158-.255.509-.255,1.432,0,3.438.1,3.6.1.35,0,2.769-.1,3.756-.1a9.806,9.806,0,0,1,5.826,1.4,5.573,5.573,0,0,1,2.2,4.329c0,2.356-.986,4.711-3.851,7.354,2.61,3.342,4.775,6.176,6.621,8.149a6.582,6.582,0,0,0,3.884,2.292,7.615,7.615,0,0,0,1.241.1c.159,0,.286.1.286.191,0,.191-.191.255-.765.255h-2.259a6.479,6.479,0,0,1-3.406-.6c-1.369-.733-2.483-2.293-4.3-4.679-1.337-1.751-2.834-3.884-3.47-4.711a.515.515,0,0,0-.414-.191l-3.915-.064c-.159,0-.223.1-.223.255v.764c0,3.056,0,5.57.16,6.908.1.924.286,1.624,1.241,1.751a13.994,13.994,0,0,0,1.432.127c.191,0,.255.1.255.191,0,.159-.159.255-.509.255-1.751,0-3.756-.1-3.916-.1-.032,0-2.037.1-2.993.1-.35,0-.509-.064-.509-.255,0-.1.064-.191.255-.191a4.955,4.955,0,0,0,.955-.127c.636-.128.8-.828.924-1.751.159-1.337.159-3.852.159-6.908Zm2.547,2.769a.415.415,0,0,0,.223.382,8.769,8.769,0,0,0,3.342.51,4.125,4.125,0,0,0,2.388-.605c1.114-.764,1.941-2.483,1.941-4.9,0-3.979-2.1-6.366-5.507-6.366a9.6,9.6,0,0,0-2.132.191.384.384,0,0,0-.255.382Z" transform="translate(-316.447 -277.206)" fill="#76777a"/>
        <path id="Path_18" data-name="Path 18" d="M449.315,292.486c0,3.056,0,5.57.158,6.908.1.924.287,1.624,1.242,1.751a14,14,0,0,0,1.433.127c.19,0,.254.1.254.191,0,.159-.159.255-.509.255-1.751,0-3.756-.1-3.915-.1s-2.165.1-3.12.1c-.35,0-.509-.064-.509-.255,0-.1.064-.191.255-.191a4.955,4.955,0,0,0,.955-.127c.636-.128.8-.828.924-1.751.159-1.337.159-3.852.159-6.908v-5.6c0-4.966,0-5.857-.064-6.876-.064-1.083-.382-1.624-1.082-1.783a4.2,4.2,0,0,0-.987-.127c-.127,0-.255-.064-.255-.191,0-.191.16-.255.509-.255,1.051,0,3.056.1,3.215.1s2.164-.1,3.119-.1c.351,0,.509.063.509.255,0,.127-.127.191-.254.191a4.71,4.71,0,0,0-.8.1c-.86.159-1.114.7-1.177,1.814-.064,1.019-.064,1.91-.064,6.876Z" transform="translate(-327.091 -277.206)" fill="#76777a"/>
        <path id="Path_19" data-name="Path 19" d="M475.292,292.3c0,3.056,0,5.57.159,6.908.1.923.287,1.624,1.242,1.751a14.017,14.017,0,0,0,1.433.127c.19,0,.254.1.254.191,0,.159-.16.255-.509.255-1.751,0-3.757-.1-3.915-.1s-2.165.1-3.12.1c-.35,0-.509-.064-.509-.255,0-.1.064-.191.255-.191a4.962,4.962,0,0,0,.955-.127c.636-.128.8-.828.923-1.751.16-1.337.16-3.852.16-6.908V278.838l-4.711.063c-1.974.032-2.737.255-3.247,1.019a5.659,5.659,0,0,0-.541.987c-.1.255-.191.319-.318.319-.1,0-.159-.1-.159-.287,0-.318.636-3.056.7-3.31.064-.191.191-.605.318-.605a5.97,5.97,0,0,0,1.4.382c.924.1,2.133.159,2.515.159h11.937a16.768,16.768,0,0,0,2.26-.159,7.658,7.658,0,0,1,.891-.16c.16,0,.16.191.16.382,0,.955-.1,3.152-.1,3.5,0,.286-.1.414-.222.414-.16,0-.223-.1-.255-.541l-.032-.35c-.127-.955-.86-1.687-3.915-1.751l-4.011-.063Z" transform="translate(-332.727 -277.023)" fill="#76777a"/>
        <path id="Path_20" data-name="Path 20" d="M505.421,293.472a6.754,6.754,0,0,0-.732-3.342c-.223-.509-4.489-7.513-5.6-9.167a8.913,8.913,0,0,0-2.165-2.356,3.042,3.042,0,0,0-1.368-.509c-.16,0-.319-.064-.319-.223,0-.128.128-.223.414-.223.605,0,2.992.1,3.152.1.223,0,1.432-.1,2.673-.1.35,0,.414.1.414.223s-.191.159-.478.287a.644.644,0,0,0-.414.572,2.725,2.725,0,0,0,.414,1.242c.51.923,5.285,9.136,5.858,10.058.605-1.336,4.648-8.308,5.284-9.358a3.109,3.109,0,0,0,.541-1.624c0-.446-.128-.8-.509-.891-.287-.1-.477-.159-.477-.318,0-.128.19-.191.509-.191.828,0,1.846.1,2.1.1.192,0,2.483-.1,3.088-.1.223,0,.414.063.414.191,0,.16-.16.255-.414.255a3.034,3.034,0,0,0-1.465.445,6.074,6.074,0,0,0-1.687,1.624,101.478,101.478,0,0,0-6.08,10.122,7.619,7.619,0,0,0-.477,3.183v2.737c0,.509,0,1.846.1,3.184.064.924.35,1.624,1.305,1.751a14.028,14.028,0,0,0,1.432.127c.192,0,.255.1.255.191,0,.159-.16.255-.509.255-1.751,0-3.757-.1-3.916-.1s-2.164.1-3.119.1c-.35,0-.509-.064-.509-.255,0-.1.064-.191.255-.191a4.948,4.948,0,0,0,.955-.127c.637-.128.924-.828.987-1.751.1-1.337.1-2.674.1-3.184Z" transform="translate(-341.91 -277.206)" fill="#76777a"/>
        <path id="Path_21" data-name="Path 21" d="M567.884,293.417c0-2.578-.158-2.929-1.431-3.279a5.951,5.951,0,0,0-1.083-.1c-.127,0-.255-.064-.255-.192,0-.191.16-.254.51-.254,1.432,0,3.438.095,3.6.095s2.165-.095,3.12-.095c.35,0,.509.063.509.254,0,.128-.127.192-.255.192a4.706,4.706,0,0,0-.8.1c-.86.16-1.114.7-1.178,1.815-.064,1.019-.064,1.974-.064,3.31v3.566c0,1.432-.031,1.5-.413,1.719a15.725,15.725,0,0,1-6.749,1.432c-2.419,0-6.939-.318-10.473-3.406a12.423,12.423,0,0,1-3.788-9.072,12.065,12.065,0,0,1,5.316-10.473,15.626,15.626,0,0,1,8.467-2.006,27.3,27.3,0,0,1,4.871.541,15.812,15.812,0,0,0,2.578.318c.319.032.382.159.382.287a40.425,40.425,0,0,0-.222,4.52c0,.509-.064.669-.287.669-.16,0-.192-.191-.224-.477a4.88,4.88,0,0,0-.668-2.1c-.8-1.21-3.374-2.578-7.481-2.578a10.172,10.172,0,0,0-6.813,2.1c-1.846,1.464-3.151,4.36-3.151,8.085a12.984,12.984,0,0,0,3.374,8.818,11.584,11.584,0,0,0,8.34,3.406,8.687,8.687,0,0,0,3.628-.668,1.155,1.155,0,0,0,.636-1.114Z" transform="translate(-357.577 -277.023)" fill="#76777a"/>
        <path id="Path_22" data-name="Path 22" d="M602.607,277.023c7.162,0,12.51,4.521,12.51,11.937,0,7.13-5.029,13.019-12.7,13.019-8.722,0-12.352-6.781-12.352-12.51C590.065,284.313,593.821,277.023,602.607,277.023Zm.668,23.747c2.865,0,8.786-1.656,8.786-10.919,0-7.639-4.648-11.746-9.677-11.746-5.316,0-9.3,3.5-9.3,10.473C593.09,296,597.546,300.77,603.276,300.77Z" transform="translate(-369.473 -277.023)" fill="#76777a"/>
        <path id="Path_23" data-name="Path 23" d="M638.334,292.549c0,4.679.128,6.716.7,7.29.509.509,1.337.732,3.82.732,1.687,0,3.088-.032,3.851-.956a4.437,4.437,0,0,0,.828-1.91c.032-.255.1-.414.286-.414.16,0,.191.128.191.478a20.252,20.252,0,0,1-.477,3.183c-.223.732-.318.86-2.005.86-4.584,0-6.685-.192-8.53-.192-.128,0-.669.032-1.305.032-.637.032-1.337.064-1.815.064-.35,0-.509-.064-.509-.255,0-.1.064-.191.255-.191a4.955,4.955,0,0,0,.955-.127c.636-.128.8-.828.923-1.751.16-1.337.16-3.852.16-6.908v-5.6c0-4.966,0-5.857-.064-6.876-.064-1.083-.318-1.592-1.369-1.814a5.939,5.939,0,0,0-1.082-.1c-.127,0-.254-.064-.254-.191,0-.191.159-.255.509-.255,1.433,0,3.438.1,3.6.1s2.483-.1,3.437-.1c.351,0,.509.063.509.255,0,.127-.128.191-.255.191a7.454,7.454,0,0,0-1.051.1c-.923.159-1.178.7-1.241,1.814-.064,1.019-.064,1.91-.064,6.876Z" transform="translate(-381.922 -277.206)" fill="#76777a"/>
        <path id="Path_24" data-name="Path 24" d="M663.889,286.881c0-4.966,0-5.857-.063-6.876-.064-1.082-.319-1.592-1.369-1.814a5.934,5.934,0,0,0-1.082-.1c-.127,0-.255-.064-.255-.191,0-.191.159-.255.509-.255,1.432,0,3.438.1,3.6.1.382,0,2.387-.1,4.3-.1,3.152,0,8.977-.287,12.765,3.629a11.374,11.374,0,0,1,3.087,8.085,13.014,13.014,0,0,1-3.437,8.977c-1.369,1.433-4.234,3.66-9.645,3.66-2.737,0-6.749-.382-7.066-.382-.159,0-2.165.1-3.12.1-.35,0-.509-.064-.509-.255,0-.1.064-.191.255-.191a4.943,4.943,0,0,0,.955-.127c.637-.128.8-.828.924-1.751.159-1.337.159-3.852.159-6.908Zm2.674,3.437c0,3.374.032,6.3.064,6.908a6.955,6.955,0,0,0,.35,2.42c.414.605,1.655,1.273,5.411,1.273a10.68,10.68,0,0,0,7.576-2.961c1.656-1.623,2.546-4.679,2.546-7.608a11.384,11.384,0,0,0-3.055-8.021c-2.993-3.152-6.622-3.6-10.409-3.6a8.472,8.472,0,0,0-2.069.223.577.577,0,0,0-.382.636c-.032,1.082-.032,4.329-.032,6.781Z" transform="translate(-390.127 -277.204)" fill="#76777a"/>
      </g>
      <line id="Line_1" data-name="Line 1" x2="295.113" transform="translate(0.178 33.056)" fill="none" stroke="#eba900" stroke-width="2"/>
      <g id="Group_5" data-name="Group 5" transform="translate(0.16 41.534)">
        <path id="Path_25" data-name="Path 25" d="M283.878,337.1h-.267l-.1-.219a1.153,1.153,0,0,0-1.242-.775h-.844c-.159,0-.219.08-.219.238v2.305h1.182c.5,0,.626-.228.736-.636h.248a8.947,8.947,0,0,0,0,1.63h-.248c-.109-.4-.238-.646-.736-.646h-1.182v2.2c0,.348.189.458.715.5v.279c-.854-.03-1.758-.03-2.613,0v-.279c.536-.039.726-.149.726-.5v-4.719c0-.288-.169-.357-.706-.4V335.8h4.233c.129,0,.15.03.169.179Z" transform="translate(-279.308 -335.642)" fill="#76777a"/>
        <path id="Path_26" data-name="Path 26" d="M297.068,338.836a2.888,2.888,0,1,1-2.882-3.259A2.948,2.948,0,0,1,297.068,338.836Zm-1.242.268c0-1.819-.736-3.18-1.8-3.18-.765,0-1.451.726-1.451,2.583,0,1.818.736,3.19,1.769,3.19C295.14,341.7,295.825,340.962,295.825,339.1Z" transform="translate(-282.803 -335.577)" fill="#76777a"/>
        <path id="Path_27" data-name="Path 27" d="M310.146,341.733l-.209.318a2.561,2.561,0,0,1-2.305-1.262l-.9-1.282c-.02,0-.05.01-.079.01l-.249.04V341.2c0,.348.17.458.7.5v.279c-.855-.03-1.719-.03-2.573,0v-.279c.536-.039.706-.149.706-.5v-4.63c0-.288-.149-.447-.666-.487V335.8c.914.039,1.858,0,2.434,0,2.1,0,2.643.775,2.643,1.639,0,.835-.526,1.461-1.868,1.849l.834,1.173C309.143,341.226,309.7,341.693,310.146,341.733ZM306.4,339.22l.249-.03c1.4-.179,1.838-.835,1.838-1.7a1.229,1.229,0,0,0-1.322-1.382H306.4Z" transform="translate(-286.637 -335.642)" fill="#76777a"/>
        <path id="Path_28" data-name="Path 28" d="M330.943,341.672v.279c-.894-.03-1.819-.03-2.713,0v-.279c.666-.049.746-.2.6-.6l-.418-1.143h-2.086l-.4,1.182c-.128.377.259.507.9.556v.279c-.735-.03-1.59-.03-2.315,0v-.279c.655-.049.9-.247,1.063-.705l1.809-5.236h.685l1.9,5.147C330.157,341.384,330.247,341.623,330.943,341.672Zm-2.654-2.066-.973-2.663-.885,2.663Z" transform="translate(-292.448 -335.622)" fill="#76777a"/>
        <path id="Path_29" data-name="Path 29" d="M343.519,340.342a5.805,5.805,0,0,0-.308,1.629c-1.55-.03-2.921-.03-4.411,0v-.279c.536-.039.705-.149.705-.5v-4.62c0-.348-.189-.457-.726-.5V335.8c.855.03,1.759.03,2.613,0v.277c-.526.04-.715.149-.715.5v4.62c0,.348.06.448.357.448h.546c.746,0,1.043-.18,1.3-.646l.348-.655Z" transform="translate(-296.594 -335.642)" fill="#76777a"/>
        <path id="Path_30" data-name="Path 30" d="M355.125,340.342a5.81,5.81,0,0,0-.308,1.629c-1.55-.03-2.921-.03-4.411,0v-.279c.536-.039.705-.149.705-.5v-4.62c0-.348-.189-.457-.726-.5V335.8c.855.03,1.759.03,2.613,0v.277c-.526.04-.715.149-.715.5v4.62c0,.348.06.448.358.448h.546c.746,0,1.044-.18,1.3-.646l.348-.655Z" transform="translate(-299.968 -335.642)" fill="#76777a"/>
        <path id="Path_31" data-name="Path 31" d="M375.565,338.836a2.888,2.888,0,1,1-2.882-3.259A2.948,2.948,0,0,1,375.565,338.836Zm-1.242.268c0-1.819-.736-3.18-1.8-3.18-.765,0-1.451.726-1.451,2.583,0,1.818.736,3.19,1.768,3.19C373.637,341.7,374.322,340.962,374.322,339.1Z" transform="translate(-305.62 -335.577)" fill="#76777a"/>
        <path id="Path_32" data-name="Path 32" d="M387.589,337.1h-.268l-.1-.219a1.153,1.153,0,0,0-1.242-.775h-.844c-.159,0-.218.08-.218.238v2.305H386.1c.5,0,.626-.228.736-.636h.248a8.936,8.936,0,0,0,0,1.63h-.248c-.109-.4-.238-.646-.736-.646h-1.182v2.2c0,.348.189.458.715.5v.279c-.854-.03-1.758-.03-2.613,0v-.279c.536-.039.726-.149.726-.5v-4.719c0-.288-.169-.357-.706-.4V335.8h4.233c.129,0,.15.03.169.179Z" transform="translate(-309.453 -335.642)" fill="#76777a"/>
        <path id="Path_33" data-name="Path 33" d="M408.017,335.8v.277a1.015,1.015,0,0,0-1,.606l-1.371,2.653v1.748c0,.448.189.567.725.6v.288c-.864-.03-1.768-.03-2.633,0v-.279c.547-.039.736-.158.736-.606v-1.669l-1.521-2.772a.831.831,0,0,0-.835-.567V335.8q1.312.029,2.623,0v.277c-.536.03-.655.219-.467.577l1.212,2.256,1.163-2.236c.209-.407-.07-.567-.616-.6V335.8C406.7,335.821,407.362,335.821,408.017,335.8Z" transform="translate(-315.004 -335.642)" fill="#76777a"/>
        <path id="Path_34" data-name="Path 34" d="M420.644,338.836a2.887,2.887,0,1,1-2.881-3.259A2.948,2.948,0,0,1,420.644,338.836Zm-1.242.268c0-1.819-.735-3.18-1.8-3.18-.765,0-1.451.726-1.451,2.583,0,1.818.735,3.19,1.768,3.19C418.717,341.7,419.4,340.962,419.4,339.1Z" transform="translate(-318.723 -335.577)" fill="#76777a"/>
        <path id="Path_35" data-name="Path 35" d="M433.882,336.577v4.709c0,.249.189.368.715.407v.279c-.854-.03-1.47-.03-2.066,0v-.279c.119-.079.179-.228.179-.526v-.288a2.137,2.137,0,0,1-1.977,1.192,1.851,1.851,0,0,1-1.978-1.977v-3.518c0-.348-.189-.457-.726-.5V335.8c.855.03,1.759.03,2.614,0v.277c-.527.04-.716.149-.716.5v3.518c0,.974.417,1.569,1.172,1.569a1.91,1.91,0,0,0,1.61-1.261v-3.825c0-.348-.189-.457-.726-.5V335.8c.855.03,1.759.03,2.613,0v.277C434.07,336.12,433.882,336.228,433.882,336.577Z" transform="translate(-322.536 -335.642)" fill="#76777a"/>
        <path id="Path_36" data-name="Path 36" d="M447.947,341.733l-.208.318a2.56,2.56,0,0,1-2.305-1.262l-.9-1.282c-.021,0-.05.01-.08.01l-.248.04V341.2c0,.348.168.458.7.5v.279c-.855-.03-1.719-.03-2.574,0v-.279c.536-.039.705-.149.705-.5v-4.63c0-.288-.149-.447-.665-.487V335.8c.914.039,1.858,0,2.435,0,2.1,0,2.643.775,2.643,1.639,0,.835-.527,1.461-1.868,1.849l.835,1.173C446.943,341.226,447.5,341.693,447.947,341.733ZM444.2,339.22l.248-.03c1.4-.179,1.839-.835,1.839-1.7a1.229,1.229,0,0,0-1.322-1.382H444.2Z" transform="translate(-326.69 -335.642)" fill="#76777a"/>
        <path id="Path_37" data-name="Path 37" d="M464.724,341.2c0,.348.168.458.7.5v.279c-.855-.03-1.719-.03-2.574,0v-.279c.536-.039.705-.149.705-.5v-4.63c0-.288-.149-.447-.666-.487V335.8c.914.039,1.858,0,2.434,0,2.1,0,2.644.775,2.644,1.639,0,1.034-.805,1.759-2.991,2.077l-.248.04Zm.248-2.007c1.4-.179,1.839-.835,1.839-1.7a1.229,1.229,0,0,0-1.322-1.382h-.765v3.11Z" transform="translate(-332.656 -335.642)" fill="#76777a"/>
        <path id="Path_38" data-name="Path 38" d="M480.861,341.733l-.209.318a2.561,2.561,0,0,1-2.305-1.262l-.9-1.282c-.02,0-.05.01-.08.01l-.248.04V341.2c0,.348.168.458.7.5v.279c-.855-.03-1.719-.03-2.574,0v-.279c.536-.039.705-.149.705-.5v-4.63c0-.288-.149-.447-.665-.487V335.8c.914.039,1.858,0,2.434,0,2.1,0,2.643.775,2.643,1.639,0,.835-.527,1.461-1.868,1.849l.835,1.173C479.857,341.226,480.414,341.693,480.861,341.733Zm-3.745-2.514.248-.03c1.4-.179,1.839-.835,1.839-1.7a1.229,1.229,0,0,0-1.321-1.382h-.765Z" transform="translate(-336.257 -335.642)" fill="#76777a"/>
        <path id="Path_39" data-name="Path 39" d="M492.837,340.342a5.781,5.781,0,0,0-.309,1.629c-1.55-.03-2.921-.03-4.411,0v-.279c.536-.039.705-.149.705-.5v-4.719c0-.288-.169-.357-.705-.4V335.8h4.233c.13,0,.149.03.169.179l.149,1.123H492.4l-.1-.219a1.154,1.154,0,0,0-1.242-.775h-.845c-.158,0-.218.08-.218.238v2.286h1.182c.5,0,.626-.239.735-.646h.248a9.179,9.179,0,0,0,0,1.639h-.248c-.11-.407-.238-.655-.735-.655H490V341.2c0,.348.06.448.357.448h.546c.745,0,1.043-.18,1.3-.646l.348-.655Z" transform="translate(-340.001 -335.642)" fill="#76777a"/>
        <path id="Path_40" data-name="Path 40" d="M505.338,340.237a2.3,2.3,0,0,1-2.385,1.809,3.024,3.024,0,0,1-3.02-3.269,2.947,2.947,0,0,1,2.93-3.2c.7,0,.915.219,1.5.219a1.73,1.73,0,0,0,.407-.05,7.144,7.144,0,0,0,.438,1.709h-.537c-.4-.934-.983-1.521-1.839-1.521-.953,0-1.658.716-1.658,2.544s.725,3.17,2.037,3.17a1.8,1.8,0,0,0,1.719-1.412Z" transform="translate(-343.436 -335.577)" fill="#76777a"/>
        <path id="Path_41" data-name="Path 41" d="M515.188,341.693v.279c-.855-.03-1.759-.03-2.613,0v-.279c.536-.039.726-.149.726-.5v-4.62c0-.348-.19-.457-.726-.5V335.8c.854.03,1.758.03,2.613,0v.277c-.526.04-.716.149-.716.5v4.62C514.472,341.544,514.662,341.654,515.188,341.693Z" transform="translate(-347.11 -335.642)" fill="#76777a"/>
        <path id="Path_42" data-name="Path 42" d="M527.015,338.836a2.888,2.888,0,1,1-2.881-3.259A2.948,2.948,0,0,1,527.015,338.836Zm-1.242.268c0-1.819-.735-3.18-1.8-3.18-.765,0-1.451.726-1.451,2.583,0,1.818.735,3.19,1.768,3.19C525.088,341.7,525.773,340.962,525.773,339.1Z" transform="translate(-349.641 -335.577)" fill="#76777a"/>
        <path id="Path_43" data-name="Path 43" d="M540.168,336.577v4.709c0,.249.189.368.715.407v.279c-.854-.03-1.47-.03-2.066,0v-.279c.119-.079.179-.228.179-.526v-.288a2.136,2.136,0,0,1-1.977,1.192,1.851,1.851,0,0,1-1.978-1.977v-3.518c0-.348-.189-.457-.726-.5V335.8c.856.03,1.759.03,2.614,0v.277c-.527.04-.716.149-.716.5v3.518c0,.974.417,1.569,1.172,1.569A1.909,1.909,0,0,0,539,340.4v-3.825c0-.348-.189-.457-.725-.5V335.8c.855.03,1.758.03,2.612,0v.277C540.356,336.12,540.168,336.228,540.168,336.577Z" transform="translate(-353.429 -335.642)" fill="#76777a"/>
        <path id="Path_44" data-name="Path 44" d="M550.344,339.224c-.934-.437-1.749-.994-1.749-2.007a1.68,1.68,0,0,1,1.907-1.64,5.69,5.69,0,0,1,1.212.228c.11,0,.189-.02.229-.149h.328l.07,1.371h-.278c-.4-.844-.914-1.093-1.421-1.093a.917.917,0,0,0-1.024.924c0,.587.438.934,1.182,1.292.785.368,2.037.835,2.037,2.107a1.9,1.9,0,0,1-2.067,1.778c-.784,0-1.162-.4-1.48-.4a.357.357,0,0,0-.338.268h-.338l-.089-1.451h.318a1.911,1.911,0,0,0,1.748,1.2,1,1,0,0,0,1.123-1C551.715,339.978,551.189,339.621,550.344,339.224Z" transform="translate(-357.56 -335.577)" fill="#76777a"/>
        <path id="Path_45" data-name="Path 45" d="M574.5,341.693v.279c-.855-.03-1.758-.03-2.613,0v-.279c.537-.039.725-.128.725-.546v-4.332l-1.907,5.157h-.129l-2.1-5.157v4.332c0,.418.368.5.994.546v.279c-.8-.03-1.59-.03-2.355,0v-.279c.616-.049.964-.128.964-.546v-4.431c0-.4-.3-.6-.834-.636V335.8c.646.03,1.321.03,1.967,0l1.778,4.352,1.6-4.352c.636.03,1.252.03,1.9,0v.277c-.526.04-.716.149-.716.527v4.54C573.774,341.565,573.963,341.654,574.5,341.693Z" transform="translate(-362.964 -335.642)" fill="#76777a"/>
        <path id="Path_46" data-name="Path 46" d="M587,340.342a5.781,5.781,0,0,0-.309,1.629c-1.55-.03-2.921-.03-4.411,0v-.279c.536-.039.705-.149.705-.5v-4.719c0-.288-.169-.357-.705-.4V335.8h4.233c.129,0,.149.03.169.179l.149,1.123h-.268l-.1-.219a1.154,1.154,0,0,0-1.242-.775h-.845c-.158,0-.218.08-.218.238v2.286h1.182c.5,0,.626-.239.736-.646h.248a9.022,9.022,0,0,0,0,1.639h-.248c-.109-.407-.238-.655-.736-.655h-1.182V341.2c0,.348.06.448.358.448h.546c.745,0,1.043-.18,1.3-.646l.348-.655Z" transform="translate(-367.371 -335.642)" fill="#76777a"/>
        <path id="Path_47" data-name="Path 47" d="M598.766,335.689l-.358,1.352h-.278c.089-.726-.11-.924-.5-.924h-.855v5.047c0,.348.19.457.825.5v.279c-.963-.03-1.868-.03-2.822,0v-.279c.636-.039.825-.149.825-.5v-5.047h-.675c-.487,0-.656.149-1.034.924h-.279l.348-1.352h.259a3.852,3.852,0,0,0,1.013.08h2.256a3.856,3.856,0,0,0,1.014-.08Z" transform="translate(-370.667 -335.61)" fill="#76777a"/>
        <path id="Path_48" data-name="Path 48" d="M611.655,341.672v.279c-.895-.03-1.818-.03-2.713,0v-.279c.665-.049.745-.2.6-.6l-.418-1.143h-2.087l-.4,1.182c-.129.377.258.507.9.556v.279c-.736-.03-1.59-.03-2.315,0v-.279c.655-.049.9-.247,1.063-.705l1.808-5.236h.686l1.9,5.147C610.87,341.384,610.959,341.623,611.655,341.672ZM609,339.606l-.974-2.663-.884,2.663Z" transform="translate(-374.041 -335.622)" fill="#76777a"/>
        <path id="Path_49" data-name="Path 49" d="M623.994,340.342a5.784,5.784,0,0,0-.309,1.629c-1.551-.03-2.921-.03-4.412,0v-.279c.537-.039.706-.149.706-.5v-4.62c0-.348-.189-.457-.725-.5V335.8c.854.03,1.758.03,2.612,0v.277c-.526.04-.715.149-.715.5v4.62c0,.348.06.448.358.448h.546c.745,0,1.043-.18,1.3-.646l.348-.655Z" transform="translate(-378.118 -335.642)" fill="#76777a"/>
        <path id="Path_50" data-name="Path 50" d="M645.1,335.8v.277c-.606.05-.954.13-.954.537v5.356H643.8l-3.438-5.137v4.312c0,.418.368.5,1,.546v.279c-.795-.03-1.6-.03-2.344,0v-.279c.6-.049.944-.128.944-.546v-4.431c0-.387-.3-.6-.835-.636V335.8c.646.03,1.281.03,1.917,0l2.7,4.084v-3.269c0-.407-.357-.487-1-.537V335.8C643.551,335.832,644.356,335.832,645.1,335.8Z" transform="translate(-383.863 -335.642)" fill="#76777a"/>
        <path id="Path_51" data-name="Path 51" d="M657.349,340.342a5.8,5.8,0,0,0-.308,1.629c-1.55-.03-2.922-.03-4.411,0v-.279c.536-.039.705-.149.705-.5v-4.719c0-.288-.169-.357-.705-.4V335.8h4.233c.128,0,.149.03.169.179l.149,1.123h-.268l-.1-.219a1.153,1.153,0,0,0-1.242-.775h-.844c-.159,0-.218.08-.218.238v2.286h1.182c.5,0,.626-.239.736-.646h.249a9.022,9.022,0,0,0,0,1.639h-.249c-.109-.407-.238-.655-.736-.655h-1.182V341.2c0,.348.06.448.357.448h.547c.746,0,1.043-.18,1.3-.646l.348-.655Z" transform="translate(-387.819 -335.642)" fill="#76777a"/>
        <path id="Path_52" data-name="Path 52" d="M668.829,340.342a5.781,5.781,0,0,0-.308,1.629c-1.549-.03-2.921-.03-4.411,0v-.279c.536-.039.706-.149.706-.5v-4.719c0-.288-.17-.357-.706-.4V335.8h4.233c.13,0,.149.03.169.179l.149,1.123h-.268l-.1-.219a1.153,1.153,0,0,0-1.242-.775h-.845c-.158,0-.218.08-.218.238v2.286h1.182c.5,0,.626-.239.736-.646h.248a9.033,9.033,0,0,0,0,1.639H667.9c-.109-.407-.238-.655-.736-.655h-1.182V341.2c0,.348.059.448.357.448h.546c.745,0,1.043-.18,1.3-.646l.347-.655Z" transform="translate(-391.156 -335.642)" fill="#76777a"/>
        <path id="Path_53" data-name="Path 53" d="M682.163,338.852a2.829,2.829,0,0,1-2.793,3.12c-.516,0-1.023-.159-1.579-.159a6.784,6.784,0,0,0-1.361.159v-.279c.5-.109.705-.2.705-.516v-4.551c0-.328-.149-.506-.666-.547V335.8c.914.039,1.551,0,2.375,0C680.811,335.8,682.163,336.706,682.163,338.852Zm-1.282.089c0-1.68-.606-2.832-2.067-2.832-.1,0-.279,0-.506.021v4.987c0,.457.4.527.735.527C680.443,341.644,680.881,340.471,680.881,338.942Z" transform="translate(-394.737 -335.642)" fill="#76777a"/>
        <path id="Path_54" data-name="Path 54" d="M691.1,339.224c-.935-.437-1.749-.994-1.749-2.007a1.68,1.68,0,0,1,1.907-1.64,5.7,5.7,0,0,1,1.212.228c.11,0,.189-.02.229-.149h.328l.069,1.371h-.278c-.4-.844-.914-1.093-1.421-1.093a.917.917,0,0,0-1.024.924c0,.587.438.934,1.182,1.292.785.368,2.037.835,2.037,2.107a1.9,1.9,0,0,1-2.067,1.778c-.784,0-1.162-.4-1.48-.4a.356.356,0,0,0-.338.268h-.338l-.089-1.451h.318a1.913,1.913,0,0,0,1.749,1.2,1,1,0,0,0,1.123-1C692.47,339.978,691.944,339.621,691.1,339.224Z" transform="translate(-398.472 -335.577)" fill="#76777a"/>
      </g>
    </g>
  </g>
</svg>
